<svg width="341" height="269" viewBox="0 0 341 269" fill="none" xmlns="http://www.w3.org/2000/svg">
<path fill-rule="evenodd" clip-rule="evenodd" d="M0 55.7147V118.416H40.4948V55.7147L20.2448 75.8467L0 55.7147Z" fill="#667B3A"/>
<path fill-rule="evenodd" clip-rule="evenodd" d="M299.765 55.7147V118.416H340.26V55.7147L320.009 75.8467L299.765 55.7147Z" fill="#667B3A"/>
<path d="M80.0339 29.0654L71.3932 28.6093L71.8125 25.464H88.1068V41.304C87.2213 41.684 86.1355 42.0613 84.8464 42.44C83.5573 42.82 82.1563 43.1667 80.6407 43.4827C79.1251 43.8 77.5651 44.0573 75.9609 44.26C74.3568 44.4613 72.7969 44.5627 71.2812 44.5627C68.25 44.5627 65.6719 44.076 63.5495 43.104C61.4271 42.1307 59.7031 40.7547 58.3776 38.9733C57.0521 37.192 56.086 35.0654 55.4792 32.588C54.8724 30.1134 54.5703 27.3587 54.5703 24.3267C54.5703 21.2973 55.0885 18.5747 56.1224 16.1614C57.1588 13.7493 58.6172 11.6947 60.5 10.004C62.3803 8.31203 64.6355 7.01736 67.2631 6.12003C69.8907 5.22403 72.7839 4.77468 75.9427 4.77468C76.724 4.77468 77.6016 4.80002 78.5755 4.85069C79.5469 4.90136 80.5079 4.97602 81.4557 5.07869C82.4036 5.17868 83.2995 5.28669 84.1459 5.40002C84.9921 5.51469 85.6927 5.64536 86.2473 5.79735L84.8855 11.444C84.2265 11.2427 83.4011 11.0334 82.4036 10.8187C81.4036 10.604 80.3568 10.416 79.2579 10.2494C78.1588 10.0854 77.0599 9.94802 75.9609 9.83335C74.862 9.72002 73.8828 9.66269 73.0235 9.66269C71.6093 9.66269 70.276 9.77069 69.026 9.98402C67.776 10.2 66.6197 10.6974 65.5599 11.4814C64.9765 11.912 64.5104 12.58 64.1563 13.4907C63.8021 14.3987 63.526 15.4427 63.3229 16.616C63.1197 17.7907 62.9817 19.0547 62.9063 20.4067C62.8307 21.7573 62.7917 23.0774 62.7917 24.3667C62.7917 29.544 63.4688 33.5107 64.8203 36.264C66.1719 39.0187 68.3125 40.3947 71.2421 40.3947C71.9765 40.3947 72.7527 40.3694 73.5729 40.3174C74.3932 40.268 75.2031 40.192 75.9973 40.092C76.7943 39.9907 77.5391 39.8894 78.2344 39.788C78.9297 39.688 79.5287 39.5747 80.0339 39.448V29.0654Z" fill="#424C1F"/>
<path d="M114.063 5.00134L118.042 8.98L114.063 12.96L110.122 8.98L114.063 5.00134ZM102.391 31.036C102.391 34.42 102.82 36.916 103.68 38.5187C104.539 40.124 105.966 40.924 107.961 40.924C108.745 40.924 109.477 40.864 110.159 40.7347C110.841 40.6093 111.409 40.4187 111.865 40.1667C112.143 40.016 112.396 39.668 112.622 39.1253C112.849 38.5827 113.039 37.9067 113.193 37.0973C113.344 36.2907 113.464 35.3693 113.552 34.332C113.638 33.296 113.682 32.2093 113.682 31.072C113.682 27.7627 113.242 25.2893 112.357 23.6453C111.471 22.004 110.057 21.1827 108.115 21.1827C107.38 21.1827 106.661 21.252 105.953 21.3907C105.245 21.5307 104.615 21.7493 104.06 22.0533C103.755 22.204 103.503 22.5533 103.302 23.096C103.099 23.64 102.927 24.3147 102.789 25.124C102.648 25.932 102.549 26.8467 102.487 27.8693C102.422 28.8947 102.391 29.948 102.391 31.036ZM101.823 5.00134L105.841 8.98L101.823 12.96L97.9193 8.98L101.823 5.00134ZM108.036 44.5253C103.591 44.5253 100.193 43.3827 97.8437 41.096C95.4948 38.8093 94.3203 35.468 94.3203 31.072C94.3203 29.0013 94.6093 27.1267 95.1927 25.4453C95.7735 23.7653 96.638 22.3453 97.7864 21.1827C98.9375 20.0213 100.37 19.124 102.089 18.492C103.807 17.8613 105.789 17.5453 108.036 17.5453C110.286 17.5453 112.263 17.8427 113.969 18.4347C115.675 19.028 117.099 19.9013 118.25 21.0493C119.398 22.2 120.266 23.608 120.846 25.2747C121.427 26.9427 121.716 28.8493 121.716 30.996C121.716 33.0933 121.427 34.976 120.846 36.6427C120.266 38.3093 119.398 39.7307 118.25 40.9067C117.099 42.08 115.675 42.9787 113.969 43.596C112.263 44.216 110.286 44.5253 108.036 44.5253Z" fill="#424C1F"/>
<path d="M136.307 44.0333H128.539V1.51601L136.307 1.14441e-05V25.6533C136.307 25.804 136.307 26.0453 136.307 26.3733C136.307 26.7027 136.3 27.044 136.287 27.3973C136.276 27.752 136.263 28.0787 136.251 28.3813C136.237 28.6853 136.229 28.9133 136.229 29.0653C136.787 28.3813 137.424 27.6053 138.143 26.7347C138.864 25.8613 139.596 24.9973 140.344 24.1373C141.088 23.28 141.795 22.4787 142.464 21.7307C143.133 20.9867 143.695 20.4 144.151 19.9693C144.581 19.5667 144.984 19.2307 145.361 18.9667C145.743 18.7 146.133 18.4787 146.536 18.3027C146.943 18.1253 147.377 17.9987 147.844 17.924C148.312 17.8467 148.849 17.8093 149.456 17.8093C149.784 17.8093 150.143 17.8227 150.536 17.8467C150.927 17.872 151.312 17.912 151.693 17.9627C152.071 18.0133 152.424 18.0707 152.752 18.1307C153.081 18.1947 153.36 18.264 153.585 18.3413V20.88H153.435C152.375 20.88 151.44 20.956 150.631 21.1067C149.82 21.2573 149.065 21.524 148.357 21.9027C147.648 22.2813 146.836 22.8947 145.915 23.74C144.989 24.5867 144.076 25.4787 143.164 26.412C143.571 27.1187 144.036 27.9707 144.568 28.9693C145.099 29.968 145.667 31.004 146.273 32.076C146.88 33.1507 147.528 34.212 148.224 35.26C148.919 36.308 149.639 37.2547 150.383 38.1013C151.131 38.9493 151.901 39.6307 152.695 40.148C153.492 40.6667 154.305 40.924 155.14 40.924C155.265 40.924 155.412 40.9187 155.576 40.9067C155.74 40.8933 155.883 40.8747 156.011 40.8493V43.2747C155.683 43.4253 155.265 43.572 154.76 43.7093C154.255 43.8493 153.711 43.9747 153.131 44.0907C152.549 44.2027 151.969 44.2907 151.388 44.3547C150.807 44.416 150.276 44.4493 149.797 44.4493C148.331 44.4493 147.049 44.0907 145.951 43.3693C144.852 42.648 143.852 41.7027 142.956 40.5253C142.06 39.352 141.219 38.0013 140.437 36.4733C139.653 34.944 138.847 33.384 138.013 31.7933L136.307 33.536V44.0333Z" fill="#424C1F"/>
<path d="M155.593 32.9294L155.973 27.776H170.297L169.919 32.9294H155.593Z" fill="#424C1F"/>
<path d="M220.853 34.5587C221.559 34.5587 222.148 34.5027 222.613 34.388C223.08 34.2747 223.504 34.104 223.885 33.876C224.263 33.6494 224.572 32.992 224.812 31.9067C225.052 30.82 225.171 29.4294 225.171 27.7387C225.171 26.8027 225.077 25.9254 224.888 25.1054C224.697 24.284 224.421 23.5707 224.055 22.964C223.687 22.3574 223.225 21.884 222.671 21.5414C222.113 21.2 221.471 21.0307 220.739 21.0307C220.08 21.0307 219.533 21.0827 219.091 21.1827C218.648 21.284 218.239 21.4614 217.859 21.7134C217.455 21.9907 217.132 22.6547 216.892 23.7027C216.651 24.7494 216.533 26.1467 216.533 27.8894C216.533 28.8 216.627 29.6574 216.817 30.4667C217.004 31.2747 217.283 31.9814 217.651 32.588C218.015 33.1947 218.465 33.6747 218.995 34.028C219.525 34.3814 220.145 34.5587 220.853 34.5587ZM218.197 62.108C216.38 62.108 214.845 61.956 213.596 61.652C212.345 61.3507 211.328 60.9387 210.547 60.4214C209.763 59.904 209.2 59.3027 208.859 58.6214C208.517 57.94 208.345 57.2187 208.345 56.4627C208.345 55.8027 208.473 55.1974 208.725 54.6427C208.979 54.0867 209.333 53.5694 209.788 53.088C210.241 52.6094 210.777 52.1534 211.397 51.724C212.017 51.296 212.705 50.8907 213.463 50.512L215.32 50.968C215.143 51.5227 215.023 52.0227 214.96 52.464C214.895 52.9054 214.867 53.4054 214.867 53.9614C214.867 55.1227 215.288 56.0574 216.135 56.764C216.981 57.4707 218.223 57.8254 219.867 57.8254C220.624 57.8254 221.383 57.788 222.14 57.712C222.897 57.636 223.629 57.528 224.337 57.3894C225.044 57.252 225.697 57.0867 226.288 56.8974C226.883 56.7067 227.395 56.5 227.825 56.272C228.432 55.944 228.817 55.444 228.981 54.7747C229.143 54.1054 229.225 53.2907 229.225 52.332C229.225 50.4107 227.192 49.4507 223.127 49.4507L218.804 49.4134C215.723 49.388 213.476 48.9587 212.061 48.124C210.645 47.292 209.94 45.8894 209.94 43.9187C209.94 43.2614 210.083 42.6187 210.375 41.9867C210.664 41.3547 211.039 40.7427 211.495 40.148C211.947 39.556 212.444 38.9987 212.989 38.48C213.533 37.964 214.056 37.5027 214.561 37.0974C213.777 36.7454 213.039 36.284 212.345 35.7147C211.651 35.1454 211.039 34.4827 210.507 33.7254C209.976 32.968 209.555 32.1094 209.236 31.148C208.921 30.1894 208.763 29.1534 208.763 28.0414C208.763 26.4 209.059 24.928 209.656 23.628C210.247 22.3254 211.077 21.2267 212.137 20.3294C213.197 19.4334 214.452 18.7454 215.905 18.264C217.361 17.7854 218.932 17.5454 220.624 17.5454C222.039 17.5454 223.291 17.62 224.375 17.7707C225.463 17.924 226.536 18.1374 227.596 18.416C228.28 18.3907 229 18.352 229.757 18.3027C230.515 18.252 231.273 18.1894 232.031 18.1134C232.788 18.036 233.52 17.956 234.228 17.8667C234.937 17.7787 235.58 17.672 236.161 17.5454L235.593 20.916C235.009 21.12 234.265 21.2774 233.356 21.3907C232.447 21.5054 231.627 21.5627 230.895 21.5627C231.247 22.1414 231.621 22.9374 232.012 23.948C232.403 24.9587 232.599 26.26 232.599 27.852C232.599 29.4934 232.301 30.9467 231.711 32.2094C231.113 33.4734 230.293 34.536 229.247 35.3934C228.197 36.252 226.952 36.9027 225.512 37.3454C224.072 37.7867 222.495 38.0067 220.776 38.0067C220.219 38.0067 219.564 37.9867 218.804 37.9507C218.049 37.9134 217.455 37.8307 217.025 37.704C216.823 38.0067 216.613 38.424 216.4 38.9547C216.184 39.484 216.077 40.0027 216.077 40.508C216.077 41.1147 216.388 41.5254 217.004 41.74C217.624 41.9547 218.719 42.0614 220.283 42.0614H226.46C228.331 42.0614 229.895 42.2067 231.159 42.4974C232.421 42.788 233.444 43.2307 234.228 43.824C235.009 44.416 235.567 45.1694 235.895 46.0787C236.223 46.988 236.389 48.0747 236.389 49.3387C236.389 50.852 235.935 52.3747 235.025 53.904C234.116 55.432 232.851 56.8027 231.236 58.0134C229.616 59.228 227.697 60.212 225.476 60.9707C223.252 61.7294 220.828 62.108 218.197 62.108Z" fill="#424C1F"/>
<path d="M247.525 18.1134V35.5067C247.525 37.0467 247.783 38.1854 248.299 38.916C248.82 39.6494 249.697 40.016 250.935 40.016C251.389 40.016 251.883 39.9587 252.411 39.8454C252.943 39.7307 253.487 39.5667 254.041 39.352C254.596 39.1374 255.145 38.8974 255.689 38.6307C256.233 38.3667 256.719 38.0827 257.151 37.78V18.1134H264.916V44.0334H257.984L257.263 41H257.187C256.656 41.3294 256.012 41.7027 255.252 42.1187C254.497 42.536 253.676 42.928 252.791 43.2934C251.905 43.66 250.992 43.9694 250.044 44.2214C249.096 44.4734 248.168 44.6 247.26 44.6C246.223 44.6 245.252 44.4414 244.34 44.1267C243.432 43.812 242.635 43.3307 241.952 42.6854C241.271 42.0427 240.736 41.2467 240.343 40.3014C239.952 39.352 239.755 38.2347 239.755 36.9467V18.1134H247.525Z" fill="#424C1F"/>
<path d="M272.723 18.5307C273.609 18.4547 274.82 18.3907 276.361 18.3414C277.903 18.2894 279.567 18.2454 281.364 18.2067C283.156 18.1707 284.981 18.1454 286.837 18.1307C288.695 18.12 290.383 18.1134 291.897 18.1134V19.476L279.205 40.5827C279.455 40.6094 279.848 40.6347 280.377 40.66C280.908 40.6854 281.471 40.704 282.064 40.716C282.659 40.7294 283.233 40.7427 283.788 40.7547C284.343 40.768 284.799 40.7734 285.153 40.7734C286.643 40.7734 287.856 40.6854 288.788 40.508C289.725 40.332 290.497 40.0974 291.104 39.8067C291.708 39.5174 292.2 39.1774 292.58 38.784C292.957 38.3934 293.325 37.9814 293.679 37.5534L294.965 38.272C294.689 38.8787 294.361 39.548 293.981 40.2814C293.604 41.0134 293.085 41.7027 292.427 42.3467C291.771 42.9907 290.932 43.5254 289.908 43.956C288.885 44.3854 287.591 44.6 286.023 44.6C285.291 44.6 284.419 44.588 283.408 44.5627C282.397 44.5374 281.351 44.4987 280.265 44.4494C279.179 44.3987 278.091 44.3547 277.007 44.316C275.919 44.2787 274.908 44.2334 273.973 44.184C273.039 44.1334 272.231 44.0947 271.549 44.0707C270.867 44.044 270.388 44.0334 270.109 44.0334V42.44L282.804 21.636H282.309C281.276 21.636 280.257 21.6494 279.26 21.676C278.263 21.7 277.323 21.7254 276.437 21.7494C275.552 21.776 274.744 21.8134 274.012 21.864C273.277 21.916 272.648 21.9534 272.116 21.9787L272.723 18.5307Z" fill="#424C1F"/>
<path fill-rule="evenodd" clip-rule="evenodd" d="M320.015 118.416C320.015 200.948 252.667 268.297 170.128 268.297C87.5964 268.297 20.2448 200.948 20.2448 118.416V87.0614H60.7396V118.416C60.7396 178.595 109.945 227.8 170.128 227.8C230.315 227.8 279.517 178.595 279.517 118.416V87.0614H320.015V118.416Z" fill="#83AC3C"/>
<path d="M41.026 134.568C41.1432 135.291 41.3385 135.972 41.6145 136.612C41.8932 137.248 42.1927 137.737 42.5156 138.073C42.6797 138.25 42.8697 138.423 43.0912 138.589C43.3099 138.759 43.6016 138.893 43.9636 138.996C44.3255 139.1 44.7683 139.155 45.2917 139.167C45.8151 139.174 46.4636 139.12 47.2369 138.999C48.0912 138.866 48.7995 138.647 49.3593 138.347C49.9193 138.048 50.3464 137.669 50.6328 137.212C50.9245 136.753 51.1016 136.217 51.1615 135.599C51.2265 134.981 51.1953 134.277 51.0703 133.489C51.0443 133.307 51 133.088 50.9427 132.827C50.8828 132.568 50.8203 132.333 50.7527 132.124L40.888 133.68L41.026 134.568ZM38.6693 135.8L38.3959 134.073L27.9869 135.713L27.1745 130.56L52.3855 126.584C52.4973 127.088 52.6172 127.637 52.7448 128.232C52.8724 128.828 53 129.44 53.1224 130.068C53.25 130.697 53.3697 131.336 53.4869 131.983C53.6068 132.631 53.7109 133.249 53.8073 133.841C54.2891 136.901 54.0964 139.308 53.2265 141.06C52.3568 142.816 50.7369 143.881 48.3697 144.256C47.3203 144.42 46.3751 144.431 45.5417 144.281C44.7109 144.136 43.9688 143.886 43.3151 143.535C42.6588 143.183 42.0885 142.75 41.6041 142.238C41.1224 141.724 40.6875 141.174 40.3099 140.595C39.1303 141.557 38.0183 142.469 36.974 143.333C35.9323 144.199 35.0312 145.035 34.276 145.844C33.5183 146.655 32.9427 147.453 32.5521 148.24C32.164 149.027 32.0339 149.824 32.1588 150.631L32.1849 150.8L30.5833 151.053C30.388 150.666 30.2057 150.212 30.0417 149.699C29.8751 149.185 29.7421 148.6 29.6355 147.944C29.5391 147.319 29.4817 146.74 29.4661 146.212C29.4505 145.683 29.5027 145.18 29.6172 144.696C29.7369 144.215 29.9427 143.724 30.2369 143.232C30.526 142.74 30.9349 142.217 31.4531 141.666C31.974 141.111 32.6224 140.5 33.4036 139.839C34.1849 139.178 35.1251 138.439 36.2292 137.623L38.6693 135.8Z" fill="#424C1F"/>
<path d="M45.2421 187.505L38.414 173.693L61.336 162.368L67.9193 175.685L65.4817 176.615L61.2084 168.25L53.7552 171.933L57.5833 179.904L55.3437 180.732L51.362 173.12L43.1667 177.167L47.612 186.612L45.2421 187.505Z" fill="#424C1F"/>
<path d="M75.7084 214.603C75.0208 215.229 74.1719 215.685 73.164 215.967C72.1563 216.245 71.0807 216.316 69.9401 216.178C68.7969 216.037 67.638 215.672 66.4609 215.079C65.2864 214.485 64.1797 213.623 63.1459 212.493C62.5833 211.881 62.1016 211.289 61.6953 210.724C61.2891 210.16 60.9401 209.592 60.6484 209.024C60.3541 208.459 60.0989 207.891 59.8828 207.321C59.664 206.753 59.4688 206.166 59.2969 205.556L62.9557 203.931C63.0183 204.371 63.1615 204.912 63.3776 205.557C63.5989 206.204 63.862 206.866 64.1693 207.545C64.4713 208.224 64.8151 208.889 65.1927 209.535C65.5703 210.183 65.9661 210.727 66.3672 211.167C67.2995 212.188 68.1145 212.855 68.8073 213.167C69.1875 213.336 69.6771 213.313 70.2683 213.1C70.8593 212.884 71.5079 212.453 72.2084 211.813C72.6979 211.362 72.9844 210.857 73.0677 210.297C73.1511 209.735 73.1197 209.128 72.974 208.472C72.8255 207.816 72.5964 207.123 72.2864 206.391C71.9765 205.66 71.6719 204.907 71.3697 204.133C71.0677 203.36 70.8073 202.562 70.5912 201.748C70.3724 200.933 70.2787 200.115 70.3099 199.295C70.3412 198.48 70.5312 197.666 70.8855 196.855C71.2369 196.048 71.8385 195.256 72.6849 194.48C73.2369 193.972 73.9584 193.589 74.8489 193.329C75.7396 193.066 76.6979 192.993 77.7317 193.111C78.7631 193.224 79.8281 193.553 80.9323 194.089C82.0312 194.625 83.0781 195.436 84.0651 196.516C84.8672 197.389 85.5833 198.259 86.224 199.131C86.8645 200 87.4584 200.873 88.0104 201.743L84.6719 203.717C84.4636 203.25 84.2213 202.748 83.9323 202.209C83.6432 201.672 83.3307 201.141 82.9973 200.615C82.6588 200.084 82.3151 199.584 81.974 199.112C81.6276 198.639 81.3073 198.232 81.0027 197.901C80.6771 197.545 80.3151 197.193 79.914 196.847C79.5183 196.5 79.1407 196.267 78.7839 196.144C78.4193 196.019 78.026 196.057 77.5912 196.25C77.1615 196.444 76.7084 196.753 76.2421 197.18C75.7656 197.62 75.4869 198.115 75.4088 198.672C75.3333 199.227 75.3724 199.829 75.5312 200.472C75.6927 201.115 75.9271 201.803 76.2369 202.535C76.5469 203.267 76.8516 204.027 77.1536 204.811C77.4557 205.597 77.7161 206.396 77.9323 207.215C78.1511 208.029 78.2369 208.852 78.1979 209.683C78.1511 210.511 77.9453 211.339 77.5755 212.166C77.2005 212.991 76.5807 213.803 75.7084 214.603Z" fill="#424C1F"/>
<path d="M94.2631 238.227L106.029 218.639L99.3489 214.483L100.898 212.384L118.646 223.043L117.135 225.076L110.5 221.327L98.7369 240.915L94.2631 238.227Z" fill="#424C1F"/>
<path d="M141.005 245.712L139.929 234.071L133.344 243.811L141.005 245.712ZM142.055 257.341L141.219 248.259L131.857 246.066L126.784 253.553L123.586 252.761L139.531 230.603L144.636 230.969L147.484 258.691L142.055 257.341Z" fill="#424C1F"/>
<path d="M193.059 252.931C192.668 254.105 192.028 255.162 191.137 256.1C190.249 257.035 189.107 257.821 187.713 258.453C186.317 259.086 184.667 259.493 182.76 259.674C181.184 259.824 179.749 259.797 178.452 259.605C177.156 259.409 176.025 259 175.064 258.384C174.101 257.761 173.323 256.904 172.725 255.805C172.129 254.709 171.755 253.329 171.596 251.674L170.005 234.844L175.203 234.355L176.84 251.68C176.96 252.956 177.173 253.961 177.487 254.691C177.796 255.423 178.2 255.964 178.695 256.321C179.187 256.674 179.777 256.881 180.468 256.931C181.159 256.983 181.952 256.967 182.848 256.881C183.943 256.778 184.877 256.584 185.651 256.29C186.427 256 187.061 255.647 187.559 255.232C188.052 254.803 188.331 254.185 188.4 253.386C188.463 252.584 188.444 251.62 188.337 250.493L186.711 233.267L191.908 232.774L193.463 249.256C193.583 250.532 193.449 251.759 193.059 252.931Z" fill="#424C1F"/>
<path d="M221.233 236.256C221.903 235.948 222.507 235.579 223.047 235.139C223.585 234.702 223.976 234.279 224.213 233.879C224.337 233.672 224.455 233.444 224.556 233.185C224.659 232.931 224.711 232.612 224.713 232.235C224.716 231.86 224.651 231.42 224.517 230.912C224.388 230.404 224.159 229.795 223.833 229.081C223.476 228.295 223.075 227.672 222.637 227.215C222.2 226.756 221.721 226.445 221.2 226.292C220.679 226.136 220.113 226.111 219.501 226.215C218.892 226.319 218.223 226.54 217.5 226.871C217.333 226.948 217.132 227.05 216.897 227.174C216.661 227.3 216.449 227.423 216.271 227.543L220.421 236.628L221.233 236.256ZM223.059 238.196L221.468 238.923L225.845 248.505L221.099 250.674L210.495 227.464C210.947 227.22 211.447 226.953 211.984 226.672C212.523 226.39 213.077 226.105 213.653 225.816C214.223 225.524 214.804 225.238 215.397 224.948C215.987 224.66 216.556 224.391 217.101 224.144C219.919 222.855 222.288 222.393 224.213 222.761C226.135 223.126 227.599 224.399 228.591 226.579C229.036 227.548 229.296 228.453 229.38 229.295C229.463 230.133 229.421 230.917 229.257 231.641C229.099 232.366 228.831 233.032 228.465 233.636C228.107 234.243 227.695 234.805 227.236 235.327C228.479 236.204 229.659 237.029 230.771 237.803C231.88 238.573 232.929 239.217 233.916 239.729C234.897 240.24 235.825 240.576 236.684 240.74C237.544 240.904 238.348 240.819 239.091 240.48L239.249 240.407L239.924 241.884C239.601 242.178 239.213 242.472 238.763 242.769C238.312 243.066 237.785 243.352 237.181 243.631C236.604 243.893 236.064 244.103 235.559 244.261C235.055 244.42 234.555 244.505 234.056 244.521C233.561 244.538 233.039 244.469 232.487 244.321C231.932 244.172 231.317 243.92 230.643 243.568C229.973 243.217 229.213 242.756 228.364 242.18C227.515 241.608 226.552 240.902 225.473 240.057L223.059 238.196Z" fill="#424C1F"/>
<path d="M152.243 89.5103C154.159 89.8303 155.011 89.5103 154.691 88.3383C154.37 87.1663 148.831 86.3157 145.636 86.421C142.438 86.5277 139.599 89.7263 140.842 91.3236C142.334 93.2396 145.743 91.0023 147.019 90.045C148.298 89.085 150.323 89.1916 152.243 89.5103ZM139.456 96.757C136.899 100.38 143.716 101.87 145.422 103.574C147.126 105.278 146.167 109.008 147.232 108.902C148.3 108.796 147.766 102.296 146.38 99.845C144.995 97.3956 140.456 95.3383 139.456 96.757ZM123.581 99.633C125.712 99.9516 126.032 98.5663 125.605 97.6076C125.18 96.649 123.047 97.1823 121.448 96.5436C119.852 95.9036 119.907 94.1823 119.425 94.4116C117.188 95.4783 121.448 99.313 123.581 99.633ZM204.179 190.086C203.487 187.8 202.826 185.977 201.81 185.662C200.838 183.857 199.326 182.853 197.93 178.662C196.216 173.519 197.416 169.405 195.528 169.577C193.643 169.745 190.9 169.745 190.728 170.946C190.728 170.946 190.727 176.433 194.671 180.548C197.228 183.217 199.346 185.66 200.526 187.056C200.296 189.704 201.796 195.313 201.323 197.758C200.7 200.954 200.424 203.592 201.323 203.962C202.219 204.334 204.662 202.154 204.58 199.597C204.5 197.04 204.979 192.725 204.179 190.086ZM100.62 75.3396C101.579 75.0196 99.1828 71.9836 96.6255 72.7823C94.0683 73.5823 90.0735 79.8156 98.5422 83.8103C100.159 84.573 101.899 84.449 101.579 81.413C101.258 78.377 99.662 75.6583 100.62 75.3396ZM157.196 141.383C157.196 141.383 166.162 138.946 166.146 127.92C166.134 121.03 158.808 118.885 158.808 118.885C161.542 121.997 161.831 123.924 161.67 130.136C161.511 136.346 157.196 141.383 157.196 141.383ZM141.022 145.564C134.5 149.574 126.191 151.892 126.191 151.892C126.191 151.892 138.656 158.444 147.924 152.053C157.196 145.66 150.962 127.92 150.962 127.92C150.962 127.92 150.482 139.745 141.022 145.564ZM207.216 193.683C205.94 195.282 206.419 197.917 205.299 201.034C204.179 204.152 206.498 204.152 207.216 203.962C207.938 203.774 209.534 197.758 209.135 196.241C208.734 194.722 208.211 192.441 207.216 193.683ZM223.268 197.222C221.75 197.302 222.55 200.417 222.55 202.686C222.55 204.954 221.831 206.811 221.67 207.93C221.51 209.048 225.266 205.69 225.427 202.577C225.586 199.46 224.662 197.149 223.268 197.222ZM212.258 182.577C210.75 182.736 212.731 187.529 213.13 189.848C213.531 192.165 213.13 193.683 212.258 197.199C211.391 200.714 210.976 204.678 211.703 205.318C212.432 205.957 214.328 199.995 215.768 196.16C217.206 192.324 216.886 189.048 216.646 187.132C216.406 185.214 214.01 182.392 212.258 182.577ZM214.676 177.411C211.372 174.853 208.176 172.722 206.086 170.485C203.995 168.245 203.331 166.348 202.104 167.181C199.44 168.993 204.127 172.722 207.856 175.704C211.588 178.689 216.914 182.949 218.192 185.67C219.471 188.392 219.258 191.686 219.044 196.056C218.831 200.422 217.07 203.464 217.498 205.085C217.924 206.709 220.64 200.209 220.856 197.438C221.067 194.668 222.239 188.49 221.388 185.506C220.534 182.524 217.979 179.965 214.676 177.411ZM247.952 157.061C250.791 148.321 253.244 139.053 251.326 126.161C249.408 113.269 242.164 105.278 236.943 100.164C231.722 95.0516 216.487 86.121 202.315 86.377C188.143 86.633 182.922 90.4703 176.958 91.5357C170.992 92.601 161.826 92.2796 160.336 85.6743C160.336 85.6743 159.058 90.4237 163.534 93.0023C168.008 95.5823 169.394 96.1156 177.386 94.517C185.375 92.9196 197.2 85.8876 212.864 91.0023C228.526 96.1157 232.255 99.6316 239.82 108.262C247.383 116.892 249.619 134.897 246.744 144.699C243.867 154.504 239.927 163.878 236.195 167.394C232.468 170.911 228.843 174.532 229.271 177.941C229.695 181.353 233 187.316 233.427 191.365C233.851 195.414 233.638 195.946 232.572 198.824C231.51 201.701 228.064 205.977 229.023 206.297C229.982 206.617 232.148 204.152 233.32 202.34C234.49 200.529 236.302 198.397 235.45 191.472C234.599 184.548 233.214 180.501 234.599 176.876C235.984 173.253 245.115 165.795 247.952 157.061ZM209.455 156.048C211.692 148.534 213.531 139.026 211.132 132.474C208.734 125.921 203.542 117.612 203.302 119.049C203.062 120.488 209.615 131.594 208.734 138.946C207.856 146.299 208.096 151.092 204.26 155.488C200.424 159.883 197.388 163.477 190.116 164.995C182.846 166.514 173.258 165.556 169.02 164.756C164.787 163.96 159.584 162.524 158.982 165.805C158.451 168.717 159.694 170.512 159.274 173.84C158.579 179.34 158.634 180.738 155.918 182.495C153.2 184.253 148.323 184.204 148.566 185.629C148.806 187.05 150.084 190.966 149.044 195.042C148.006 199.118 141.415 208.488 143.811 207.85C145.131 207.499 149.044 202.952 151.44 197.917C153.839 192.883 153.76 187.05 153.76 187.05C153.76 187.05 156.766 187.132 160.336 183.376C163.907 179.621 163.902 178.118 164.227 174.345C164.492 171.282 162.311 167.394 164.547 166.995C166.784 166.594 171.5 168.433 178.69 168.753C185.883 169.072 189.719 169.392 194.911 168.353C200.107 167.313 207.216 163.558 209.455 156.048ZM140.56 199.57C139.18 199.348 140.196 201.537 140.068 203.472C139.94 205.409 139.18 205.916 138.703 206.93C138.23 207.946 138.831 208.169 140.006 208.325C141.178 208.482 142.511 204.773 142.511 203.028C142.511 201.283 141.328 199.694 140.56 199.57ZM129.12 196.311C128.217 196.569 129.282 199.25 129.12 200.902C128.962 202.553 128.748 203.938 128.8 204.553C128.855 205.168 131.358 204.897 131.678 203.832C131.998 202.766 131.571 199.782 130.932 198.078C130.292 196.373 129.795 196.121 129.12 196.311ZM124.912 192.644C124.032 191.925 124.592 190.488 123.954 189.607C123.313 188.73 122.816 187.933 122.115 188.089C120.678 188.411 122.355 191.365 122.995 192.805C123.633 194.244 123.474 194.802 123.873 199.037C124.271 203.272 123.553 203.353 123.633 204.072C123.714 204.79 126.35 204.632 126.99 204.072C127.628 203.512 127.389 197.199 126.99 195.842C126.589 194.482 125.79 193.362 124.912 192.644ZM126.191 184.574C126.191 184.574 123.074 184.094 121.076 183.534C119.079 182.974 119.639 181.857 119.159 179.86C118.68 177.862 118.027 176.807 116.922 176.982C115.404 177.222 115.803 178.581 116.042 180.66C116.282 182.736 117.56 184.493 120.261 185.373C122.959 186.25 126.191 184.574 126.191 184.574ZM141.052 184.761C141.159 184.121 137.751 184.334 136.36 184.228C134.97 184.121 134.766 183.8 133.891 181.67C133.016 179.537 131.891 176.449 130.292 174.318C128.693 172.189 126.99 172.189 125.498 171.868C124.006 171.55 119.425 167.818 116.974 165.157C114.524 162.493 115.589 155.356 115.589 155.356C115.589 155.356 113.672 154.077 112.394 153.969C111.115 153.862 108.878 150.988 106.107 149.176C103.336 147.362 99.9277 138.946 99.9277 138.946C99.0761 142.248 99.2896 145.553 101.527 149.6C103.764 153.652 106.852 152.157 109.274 156.206C111.696 160.256 109.516 162.386 109.73 167.288C109.943 172.189 114.631 172.826 115.162 174.853C115.696 176.876 118.998 175.49 118.253 173.788C117.508 172.081 114.204 171.974 112.18 166.753C110.157 161.534 112.074 157.272 112.925 157.805C113.779 158.34 114.417 164.837 116.654 168.78C118.894 172.722 123.261 173.04 126.139 175.28C129.014 177.517 127.521 178.689 129.865 183.376C132.208 188.064 133.383 186.25 134.872 191.9C136.366 197.545 134.235 201.274 134.342 203.832C134.446 206.389 137.216 204.577 137.216 204.577C137.216 204.577 138.391 196.586 138.391 194.244C138.391 191.9 137.006 188.914 136.472 186.999C135.938 185.078 140.946 185.4 141.052 184.761ZM109.136 113.225C110.006 108.585 106.524 102.009 106.524 102.009C109.232 108.876 105.654 112.356 103.334 115.644C101.011 118.93 97.7245 119.606 96.1777 127.053C94.6307 134.5 97.1438 143.878 97.1438 143.878C97.1438 143.878 98.2089 130.534 99.7558 125.99C101.303 121.445 108.266 117.868 109.136 113.225ZM87.037 114.868C85.8626 115.08 80.537 115.506 79.1099 115.506C77.6828 115.506 77.873 113.696 76.7011 113.83C75.5318 113.964 74.3574 113.83 74.3574 113.83C74.3574 113.83 73.5058 111.992 73.1855 110.925C72.8651 109.861 74.2506 108.794 76.3807 108.029C78.5135 107.262 79.3651 105.918 79.0448 104.96C78.7244 104 77.4459 104.106 76.3807 104.96C75.3183 105.812 74.5708 106.025 72.9719 106.469C71.373 106.913 71.1307 110.084 70.9484 111.778C70.6724 114.358 74.3574 114.974 76.0631 115.293C77.7689 115.613 77.5552 117.106 79.3651 118.002C81.1776 118.9 87.1438 116.678 88.7402 118.002C90.3391 119.328 89.1672 120.301 88.9536 121.473C88.7402 122.646 89.9121 122.965 89.9121 122.965C89.9121 122.965 90.9798 118.916 90.6594 116.997C90.3391 115.08 88.2088 114.654 87.037 114.868ZM89.9927 85.8076C87.4355 85.9676 84.6386 85.4077 82.6411 88.6037C80.6438 91.801 80.4042 92.9197 77.2063 95.637C74.011 98.353 70.175 100.112 69.2974 102.429C68.4172 104.746 67.3 106.184 68.576 106.904C69.3468 107.336 71.2948 106.744 71.2948 105.065C71.2948 103.386 71.6933 101.894 74.2506 100.084C76.8078 98.273 80.8026 95.157 82.8807 92.601C84.9588 90.0436 86.3156 89.0837 88.4744 89.0037C90.6307 88.925 91.8886 89.4036 92.2192 88.365C92.55 87.325 92.55 85.6463 89.9927 85.8076ZM100.941 95.557C103.258 94.7583 103.066 92.4063 104.042 92.1836C105.016 91.961 106.295 91.3223 105.654 91.0823C105.016 90.841 103.178 90.6823 100.62 91.0823C98.0631 91.4796 97.1047 92.6023 95.6646 93.5197C94.2271 94.437 92.0553 94.6063 92.2298 95.317C92.2298 95.317 92.0708 96.2756 92.9484 96.1956C93.8287 96.1156 95.7454 94.837 97.024 94.917C98.3026 94.997 98.623 96.357 100.941 95.557ZM118.279 105.705C118.6 106.744 121.209 106.53 123.422 106.184C125.633 105.838 128.243 103.868 128.748 102.082C129.253 100.298 127.816 100.137 126.964 100.085C126.11 100.033 125.899 102.029 125.42 102.562C124.941 103.096 124.326 103.786 123.128 104.321C121.93 104.853 120.172 104.93 119.586 104.985C119.001 105.04 118.029 104.89 118.279 105.705ZM131.424 113.696C131.383 114.134 133.798 113.405 134.446 112.817C135.312 112.032 136.058 111.018 136.258 108.861C136.459 106.704 136.378 104.106 135.86 102.982C135.339 101.858 133.948 100.624 132.503 101.509C131.263 102.269 131.37 102.852 131.743 103.868C132.156 104.985 133.815 105.533 133.924 107.09C134.034 108.649 133.982 109.061 133.634 110.738C133.284 112.417 131.464 113.256 131.424 113.696ZM148.656 77.8156C148.112 77.4343 145.342 78.0716 142.886 78.7423C140.427 79.4116 139.154 81.0063 138.134 82.0583C137.112 83.1116 136.03 85.8557 137.812 86.301C139.472 86.7157 140.555 85.3437 140.875 84.3863C141.194 83.4303 141.959 81.517 143.331 80.5596C144.7 79.6023 146.967 79.0596 147.828 78.965C148.688 78.8703 149.2 78.1996 148.656 77.8156ZM133.254 73.8623C134.112 73.3183 133.347 72.5223 132.615 72.873C131.88 73.2236 129.745 74.8183 129.011 76.285C128.277 77.753 125.495 83.249 128.818 83.461C130.063 83.5423 130.542 82.9197 130.766 81.069C130.987 79.2183 129.936 77.6783 130.732 76.4677C131.53 75.257 132.391 74.405 133.254 73.8623ZM104.563 81.5916C105.503 83.9036 110.485 82.6023 111.857 80.941C113.23 79.281 118.308 75.8557 121.391 74.3703C127.389 71.4797 138.87 70.6116 143.782 72.9236C148.694 75.233 154.978 81.7356 156.063 87.441C157.144 93.149 156.134 99.7196 152.811 105.426C149.487 111.132 142.626 113.805 138.654 114.672C134.68 115.538 128.399 114.888 123.269 112.505C118.139 110.121 114.964 106.365 115.54 100.082C116.118 93.797 118.357 92.137 121.969 89.897C125.581 87.6583 132.514 88.669 133.743 90.0423C134.972 91.4143 135.478 94.0143 132.948 95.4583C130.42 96.9036 129.336 94.8796 127.602 95.2436C125.868 95.6036 127.17 98.637 128.904 99.2863C131.506 100.262 136.055 97.6983 136.703 94.4476C137.352 91.1983 136.44 87.4703 130.998 86.3583C124.279 84.985 117.201 89.6076 115.396 91.6303C113.592 93.6543 109.769 99.8303 114.602 108.75C119.73 118.212 132.082 118.933 140.82 117.348C152.722 115.188 158.662 104.27 158.806 93.5823C158.951 82.8916 154.039 75.4516 145.732 70.9743C137.424 66.497 127.891 68.085 123.993 69.313C120.094 70.5423 115.037 73.069 109.186 74.6583C103.334 76.2476 103.623 79.281 104.563 81.5916ZM88.5578 84.289C91.576 83.0356 89.2766 82.161 88.8468 79.6023C88.5578 77.8636 89.0422 76.7583 90.6594 74.169C91.5135 72.7997 93.6411 71.6116 96.0916 71.3983C98.5448 71.1863 103.126 74.2743 106.428 74.2743C109.73 74.2743 110.688 72.2503 110.688 72.2503C110.688 72.2503 108.665 72.2503 106.001 72.2503C103.339 72.2503 101.738 70.6516 99.6099 69.7996C97.4771 68.9476 95.985 67.7743 92.149 69.161C88.3156 70.5463 86.3964 74.701 85.3312 77.577C84.2662 80.4543 86.2662 85.245 88.5578 84.289Z" fill="#A61B20"/>
<path d="M260.883 212.339L250.599 206.784L255.059 217.662L260.883 212.339ZM271.148 217.909L263.127 213.571L256.113 220.15L259.536 228.521L257.104 230.745L247.489 205.196L250.624 201.15L275.277 214.136L271.148 217.909Z" fill="#424C1F"/>
<path d="M300.629 175.779L276.307 183.25L276.273 183.316C277.611 183.993 278.843 184.615 279.976 185.18C280.452 185.417 280.935 185.66 281.413 185.907C281.895 186.155 282.34 186.384 282.747 186.592C283.156 186.8 283.509 186.983 283.817 187.133C284.121 187.286 284.34 187.399 284.471 187.472L292.067 191.532L290.632 194.217L267.927 182.084L268.997 180.079L293.288 172.56L293.299 172.54C292.064 171.917 290.916 171.332 289.851 170.781C289.395 170.54 288.935 170.297 288.468 170.057C288.001 169.816 287.559 169.59 287.135 169.373C286.713 169.157 286.325 168.953 285.973 168.767C285.621 168.579 285.335 168.426 285.116 168.308L277.627 164.305L279.061 161.617L301.723 173.729L300.629 175.779Z" fill="#424C1F"/>
<path d="M310.744 141.833L288.179 138.25L286.823 145.999L284.296 145.344L287.541 124.9L289.995 125.541L288.997 133.095L311.561 136.678L310.744 141.833Z" fill="#424C1F"/>
<path fill-rule="evenodd" clip-rule="evenodd" d="M320.015 87.0613L340.26 118.416H320.015V87.0613ZM20.2448 87.0613L0 118.416H20.2448V87.0613Z" fill="#424C1F"/>
<path fill-rule="evenodd" clip-rule="evenodd" d="M35.2656 100.981C34.7917 100.448 34.3151 99.916 33.7213 99.5107C33.2084 99.16 32.6407 98.968 32.0079 98.9893C31.4844 99.0067 31.0443 99.1907 30.7421 99.6413C30.6484 99.78 30.5417 99.908 30.4453 100.045C30.3776 100.145 30.3047 100.165 30.1875 100.117C29.9401 100.016 29.6823 99.9427 29.4115 99.9293C29.2396 99.9213 29.0781 99.9547 28.9505 100.08C28.9531 100.12 27.9505 100.585 27.9245 100.335C27.6615 100.457 27.4973 100.683 27.336 100.909C26.9609 101.435 26.6511 101.997 26.362 102.571C26.3229 102.645 26.276 102.7 26.2005 102.743C25.7683 103.001 25.4088 103.336 25.1407 103.765C24.7552 104.389 24.7344 105.023 25.1197 105.656C25.1745 105.747 25.1693 105.805 25.1145 105.896C24.8255 106.363 24.888 106.832 25.138 107.292C25.2604 107.52 25.4167 107.728 25.6068 107.905C25.9323 108.209 26.2136 108.552 26.4817 108.908C27.2136 109.871 28.112 110.664 29.0885 111.368C29.9531 111.992 30.8855 112.495 31.8803 112.883C33.7656 113.619 35.7292 114.052 37.7265 114.344C39.8568 114.655 41.9973 114.825 44.1536 114.864C46.086 114.896 47.9297 114.511 49.7136 113.788C51.0964 113.228 52.4271 112.572 53.6745 111.755C54.2552 111.375 54.7031 110.859 55.1719 110.364C55.4245 110.095 55.6771 109.825 55.9271 109.555C56.0312 109.44 56.0599 109.293 56.0651 109.147C56.0755 108.96 55.9869 108.877 55.7995 108.884C55.1068 108.913 54.414 108.945 53.7213 108.976C51.6536 109.072 49.586 109.167 47.5183 109.265C46.9115 109.293 46.3047 109.331 45.7005 109.364C45.388 109.383 45.0964 109.305 44.8125 109.196C44.2369 108.976 42.1693 107.893 41.8568 107.755C41.7265 107.697 41.1927 107.052 41.1927 107.105C41.1927 107.359 35.6823 101.449 35.2656 100.981Z" fill="#ED1C24"/>
<path fill-rule="evenodd" clip-rule="evenodd" d="M26.5495 107.071C26.5521 107.061 26.5521 107.037 26.5573 107.012C26.6484 106.503 27.2292 105.907 27.7396 105.796C27.8464 105.773 27.9167 105.812 27.9636 105.904C28.0364 106.041 27.9609 106.376 27.8385 106.476C27.8125 106.497 27.7891 106.523 27.7579 106.507C27.7213 106.489 27.7161 106.451 27.724 106.415C27.7369 106.344 27.7631 106.279 27.7995 106.217C27.8151 106.187 27.8412 106.149 27.8047 106.123C27.7631 106.091 27.7448 106.136 27.7213 106.161C27.664 106.231 27.6016 106.296 27.5443 106.369C27.4505 106.492 27.3203 106.591 27.276 106.749C27.2265 106.94 26.8776 107.22 26.6823 107.224C26.5885 107.227 26.5417 107.184 26.5495 107.071Z" fill="#DF282B"/>
<path fill-rule="evenodd" clip-rule="evenodd" d="M30.1667 105.209C30.1849 105.005 30.1797 104.789 30.2891 104.62C30.3907 104.467 30.4584 104.301 30.5364 104.137C30.5781 104.047 30.6407 103.967 30.7265 103.907C30.7787 103.869 30.836 103.817 30.9011 103.873C30.9609 103.924 30.9636 103.999 30.9375 104.069C30.9245 104.105 30.8984 104.141 30.8724 104.169C30.75 104.296 30.6849 104.453 30.6303 104.617C30.5547 104.844 30.4636 105.061 30.3255 105.257C30.2917 105.303 30.2579 105.369 30.2005 105.352C30.1276 105.333 30.1849 105.256 30.1667 105.209Z" fill="#DF282B"/>
<path fill-rule="evenodd" clip-rule="evenodd" d="M30.0781 106.256C30.0885 106.336 30.0469 106.36 29.9792 106.347C29.8464 106.32 29.7369 106.255 29.6667 106.133C29.5703 105.964 29.5208 105.779 29.474 105.593C29.4661 105.557 29.4401 105.511 29.4869 105.485C29.526 105.463 29.5651 105.489 29.5937 105.516C29.7787 105.68 29.8932 105.9 30.0391 106.096C30.0677 106.137 30.0651 106.203 30.0781 106.256Z" fill="#DF282B"/>
<path fill-rule="evenodd" clip-rule="evenodd" d="M27.9245 100.335C27.9505 100.585 27.9817 100.835 28 101.085C28.0235 101.488 28.1536 101.867 28.25 102.252C28.276 102.351 28.2969 102.449 28.3177 102.547C28.3541 102.609 28.3412 102.677 28.3333 102.74C28.2917 103.052 28.3177 103.367 28.3099 103.679C28.3047 103.801 28.3412 103.916 28.3828 104.031C28.4349 104.173 28.5312 104.229 28.6745 104.212C29.1693 104.152 29.6276 104.011 29.9973 103.647C30.086 103.559 30.1251 103.436 30.2265 103.361V103.364C30.2188 103.321 30.2421 103.285 30.2527 103.247C30.3151 103.075 30.2943 102.905 30.1849 102.763C29.9713 102.487 29.7839 102.195 29.6197 101.888C29.3021 101.364 29.1016 100.793 28.9636 100.2C28.9531 100.161 28.9531 100.12 28.9505 100.08C28.7683 99.2134 28.8385 98.3614 29.1172 97.524C29.3047 96.9547 29.5807 96.428 29.9636 95.9627C30.0651 95.84 30.1823 95.748 30.3437 95.7387C30.4297 95.7334 30.4401 95.688 30.4063 95.6294C30.3255 95.492 30.2995 95.2947 30.0651 95.336C30.0339 95.34 30 95.3214 29.9948 95.2894C29.9765 95.1627 29.8672 95.0667 29.8645 94.9387C29.8645 94.828 29.8021 94.7747 29.7188 94.7307C29.6979 94.7214 29.6797 94.712 29.6615 94.704C29.1693 94.516 29.0677 94.5587 28.8645 95.0614C28.6145 95.6814 28.4193 96.3187 28.2579 96.9667C27.9921 98.0387 27.888 99.1267 27.9323 100.228C27.9323 100.264 27.9271 100.299 27.9245 100.335Z" fill="#437F3B"/>
<path fill-rule="evenodd" clip-rule="evenodd" d="M30.2265 103.361C30.1251 103.436 30.086 103.559 29.9973 103.647C29.6276 104.011 29.1693 104.152 28.6745 104.212C28.5312 104.229 28.4349 104.173 28.3828 104.031C28.3412 103.916 28.3047 103.801 28.3099 103.679C28.3177 103.367 28.2917 103.052 28.3333 102.74C28.3412 102.677 28.3541 102.609 28.3177 102.547C28.0208 103.08 27.7527 103.631 27.3645 104.105C27.1953 104.309 27.0183 104.503 26.7656 104.604C26.7057 104.628 26.6588 104.651 26.6979 104.719C26.7369 104.788 26.7579 104.893 26.8803 104.857C26.9349 104.84 26.9896 104.808 27.0469 104.793C27.2527 104.737 27.2527 104.739 27.2473 104.956C27.3593 104.939 27.4688 104.92 27.5807 104.901C27.5989 104.881 27.6197 104.883 27.6432 104.891C27.6719 104.885 27.7057 104.88 27.7369 104.876C27.8776 104.848 28.0183 104.82 28.1563 104.792C28.4713 104.741 28.7839 104.688 29.0989 104.636C29.3151 104.603 29.526 104.571 29.7084 104.436C29.7396 104.412 29.7812 104.401 29.7995 104.359C29.9375 104.024 30.112 103.707 30.2265 103.361Z" fill="#4D4427"/>
<path fill-rule="evenodd" clip-rule="evenodd" d="M29.6197 101.888C29.7839 102.195 29.9713 102.487 30.1849 102.763C30.2943 102.905 30.3151 103.075 30.2527 103.247C30.2421 103.285 30.2188 103.321 30.2265 103.364C30.4245 102.995 30.5677 102.601 30.75 102.224C30.7864 102.147 30.8281 102.072 30.8672 101.997C30.8959 101.924 30.9271 101.852 30.9557 101.779C30.9349 101.601 30.7917 101.507 30.6849 101.391C30.6197 101.321 30.5755 101.261 30.5755 101.157C30.5755 101.069 30.5912 100.933 30.4349 100.943C30.2943 100.952 30.2084 101.068 30.2448 101.207C30.2891 101.372 30.2369 101.483 30.0989 101.58C29.9453 101.692 29.7917 101.805 29.6197 101.888Z" fill="#4B4F28"/>
<path fill-rule="evenodd" clip-rule="evenodd" d="M26.5495 107.071C26.5417 107.184 26.5885 107.227 26.6823 107.224C26.8776 107.22 27.2265 106.94 27.276 106.749C27.3203 106.591 27.4505 106.492 27.5443 106.369C27.6016 106.296 27.664 106.231 27.7213 106.161C27.7448 106.136 27.7631 106.091 27.8047 106.123C27.8412 106.149 27.8151 106.187 27.7995 106.217C27.7631 106.279 27.7369 106.344 27.724 106.415C27.7161 106.451 27.7213 106.489 27.7579 106.507C27.7891 106.523 27.8125 106.497 27.8385 106.476C27.9609 106.376 28.0364 106.041 27.9636 105.904C27.9167 105.812 27.8464 105.773 27.7396 105.796C27.2292 105.907 26.6484 106.503 26.5573 107.012C26.5521 107.037 26.5521 107.061 26.5495 107.071Z" fill="#F14748"/>
<path fill-rule="evenodd" clip-rule="evenodd" d="M27.5807 104.901C27.4688 104.92 27.3593 104.939 27.2473 104.956C27.0469 105.055 26.8541 105.167 26.7213 105.352C26.6771 105.413 26.6197 105.388 26.5703 105.38C26.3073 105.339 26.0469 105.323 25.7839 105.369C25.5677 105.408 25.3828 105.495 25.2683 105.74C25.4973 105.685 25.6927 105.636 25.8932 105.593C26.1459 105.541 26.3984 105.484 26.6588 105.536C26.7292 105.551 26.7735 105.505 26.8229 105.472C27.1459 105.243 27.4844 105.044 27.862 104.915C27.8437 104.825 27.776 104.899 27.7369 104.876C27.7057 104.88 27.6719 104.885 27.6432 104.891C27.6224 104.893 27.6016 104.897 27.5807 104.901Z" fill="#F14748"/>
<path fill-rule="evenodd" clip-rule="evenodd" d="M30.1667 105.209C30.1849 105.256 30.1276 105.333 30.2005 105.352C30.2579 105.369 30.2917 105.303 30.3255 105.257C30.4636 105.061 30.5547 104.844 30.6303 104.617C30.6849 104.453 30.75 104.296 30.8724 104.169C30.8984 104.141 30.9245 104.105 30.9375 104.069C30.9636 103.999 30.9609 103.924 30.9011 103.873C30.836 103.817 30.7787 103.869 30.7265 103.907C30.6407 103.967 30.5781 104.047 30.5364 104.137C30.4584 104.301 30.3907 104.467 30.2891 104.62C30.1797 104.789 30.1849 105.005 30.1667 105.209Z" fill="#F14748"/>
<path fill-rule="evenodd" clip-rule="evenodd" d="M30.9557 101.779C30.9271 101.852 30.8959 101.924 30.8672 101.997C30.8959 102.045 30.9193 102.004 30.9349 101.987C31.2527 101.64 31.6511 101.403 32.0391 101.151C32.0937 101.116 32.2136 101.103 32.1511 100.997C32.0912 100.899 32 100.929 31.914 100.983C31.5573 101.203 31.2161 101.443 30.9557 101.779Z" fill="#F14748"/>
<path fill-rule="evenodd" clip-rule="evenodd" d="M30.0781 106.256C30.0651 106.203 30.0677 106.137 30.0391 106.096C29.8932 105.9 29.7787 105.68 29.5937 105.516C29.5651 105.489 29.526 105.463 29.4869 105.485C29.4401 105.511 29.4661 105.557 29.474 105.593C29.5208 105.779 29.5703 105.964 29.6667 106.133C29.7369 106.255 29.8464 106.32 29.9792 106.347C30.0469 106.36 30.0885 106.336 30.0781 106.256Z" fill="#F14748"/>
<path fill-rule="evenodd" clip-rule="evenodd" d="M26.2787 107.884C26.2787 107.884 27.2787 107.847 27.5364 107.625C27.7969 107.404 28.3489 107.219 28.6823 107.552C29.0156 107.884 30.0495 109.364 31.4167 110.213C32.7839 111.063 36.0729 112.725 37.2188 112.947C38.3645 113.169 40.1016 113.576 41.1745 113.76C42.2448 113.945 44.3516 114.167 45.8307 113.871C47.3073 113.576 49.638 113.057 49.526 113.28C49.414 113.503 46.7552 114.425 45.7188 114.425C44.6849 114.425 40.6563 114.425 40.0651 114.315C39.474 114.204 37.6251 114.093 36.888 113.76C36.1484 113.428 34.0781 112.984 33.4505 112.911C32.8229 112.837 30.974 112.208 30.4193 111.728C29.8645 111.248 29.1251 111.432 28.2396 110.287C27.3516 109.14 25.6145 107.959 26.2787 107.884Z" fill="#A61B20"/>
<path fill-rule="evenodd" clip-rule="evenodd" d="M28.3281 100.381C28.5417 101.461 28.776 101.887 28.9765 102.288C29.1771 102.689 29.4245 102.951 29.3645 103.321C29.3021 103.692 28.8229 103.967 28.7005 103.984C28.3828 104.031 28.4688 102.888 28.4219 102.533C28.3776 102.18 28.0052 100.697 28.0052 100.375C28.0052 100.051 28.1093 99.3027 28.3281 100.381Z" fill="#779F52"/>
<path fill-rule="evenodd" clip-rule="evenodd" d="M51.2005 109.585L44.8855 109.661C44.8855 109.661 42.5651 108.368 41.7656 108.064C40.9661 107.76 38.9896 106.124 38.6849 105.476C38.3803 104.831 34.5364 101.292 34.2708 101.101C34.0052 100.912 32.9011 100.455 32.9011 100.455C32.9011 100.455 32.3672 101.444 32.4453 101.711C32.5208 101.977 33.9661 102.091 34.8412 102.624C35.7161 103.156 37.8855 105.629 38.7604 106.391C39.6355 107.151 41.0807 109.129 41.6901 109.509C42.2995 109.891 44.0104 110.613 45.7604 110.423C47.5104 110.232 49.5287 109.813 49.9063 109.928C50.2864 110.043 51.2005 109.585 51.2005 109.585Z" fill="#F14748"/>
<path fill-rule="evenodd" clip-rule="evenodd" d="M305.643 100.981C306.116 100.448 306.593 99.916 307.187 99.5107C307.7 99.16 308.268 98.968 308.9 98.9893C309.424 99.0067 309.864 99.1907 310.167 99.6413C310.26 99.78 310.367 99.908 310.463 100.045C310.531 100.145 310.604 100.165 310.721 100.117C310.968 100.016 311.225 99.9427 311.497 99.9293C311.668 99.9213 311.831 99.9547 311.957 100.08C311.955 100.12 312.957 100.585 312.984 100.335C313.247 100.457 313.411 100.683 313.572 100.909C313.947 101.435 314.257 101.997 314.547 102.571C314.585 102.645 314.632 102.7 314.708 102.743C315.14 103.001 315.5 103.336 315.768 103.765C316.153 104.389 316.173 105.023 315.788 105.656C315.733 105.747 315.739 105.805 315.793 105.896C316.083 106.363 316.02 106.832 315.771 107.292C315.648 107.52 315.492 107.728 315.301 107.905C314.976 108.209 314.695 108.552 314.427 108.908C313.695 109.871 312.796 110.664 311.82 111.368C310.955 111.992 310.023 112.495 309.028 112.883C307.143 113.619 305.179 114.052 303.181 114.344C301.052 114.655 298.911 114.825 296.755 114.864C294.823 114.896 292.979 114.511 291.195 113.788C289.812 113.228 288.481 112.572 287.233 111.755C286.653 111.375 286.205 110.859 285.736 110.364C285.484 110.095 285.231 109.825 284.981 109.555C284.877 109.44 284.848 109.293 284.843 109.147C284.833 108.96 284.921 108.877 285.109 108.884C285.801 108.913 286.495 108.945 287.187 108.976C289.255 109.072 291.323 109.167 293.389 109.265C293.997 109.293 294.604 109.331 295.208 109.364C295.52 109.383 295.812 109.305 296.096 109.196C296.671 108.976 298.739 107.893 299.052 107.755C299.181 107.697 299.716 107.052 299.716 107.105C299.716 107.359 305.225 101.449 305.643 100.981Z" fill="#ED1C24"/>
<path fill-rule="evenodd" clip-rule="evenodd" d="M314.359 107.071C314.356 107.061 314.356 107.037 314.351 107.012C314.26 106.503 313.679 105.907 313.168 105.796C313.061 105.773 312.992 105.812 312.944 105.904C312.872 106.041 312.947 106.376 313.069 106.476C313.096 106.497 313.119 106.523 313.151 106.507C313.187 106.489 313.192 106.451 313.184 106.415C313.171 106.344 313.145 106.279 313.109 106.217C313.093 106.187 313.067 106.149 313.104 106.123C313.145 106.091 313.164 106.136 313.187 106.161C313.244 106.231 313.307 106.296 313.364 106.369C313.457 106.492 313.588 106.591 313.632 106.749C313.681 106.94 314.031 107.22 314.225 107.224C314.32 107.227 314.367 107.184 314.359 107.071Z" fill="#DF282B"/>
<path fill-rule="evenodd" clip-rule="evenodd" d="M310.741 105.209C310.723 105.005 310.728 104.789 310.619 104.62C310.517 104.467 310.449 104.301 310.372 104.137C310.331 104.047 310.268 103.967 310.181 103.907C310.129 103.869 310.072 103.817 310.007 103.873C309.947 103.924 309.944 103.999 309.971 104.069C309.984 104.105 310.009 104.141 310.036 104.169C310.159 104.296 310.223 104.453 310.277 104.617C310.353 104.844 310.444 105.061 310.583 105.257C310.616 105.303 310.651 105.369 310.708 105.352C310.78 105.333 310.723 105.256 310.741 105.209Z" fill="#DF282B"/>
<path fill-rule="evenodd" clip-rule="evenodd" d="M310.831 106.256C310.82 106.336 310.861 106.36 310.929 106.347C311.061 106.32 311.171 106.255 311.241 106.133C311.337 105.964 311.388 105.779 311.435 105.593C311.443 105.557 311.468 105.511 311.421 105.485C311.383 105.463 311.343 105.489 311.315 105.516C311.129 105.68 311.015 105.9 310.869 106.096C310.84 106.137 310.843 106.203 310.831 106.256Z" fill="#DF282B"/>
<path fill-rule="evenodd" clip-rule="evenodd" d="M312.984 100.335C312.957 100.585 312.927 100.835 312.908 101.085C312.885 101.488 312.755 101.867 312.659 102.252C312.632 102.351 312.611 102.449 312.591 102.547C312.555 102.609 312.567 102.677 312.575 102.74C312.616 103.052 312.591 103.367 312.599 103.679C312.604 103.801 312.567 103.916 312.525 104.031C312.473 104.173 312.377 104.229 312.233 104.212C311.739 104.152 311.28 104.011 310.911 103.647C310.823 103.559 310.783 103.436 310.681 103.361V103.364C310.689 103.321 310.667 103.285 310.656 103.247C310.593 103.075 310.613 102.905 310.723 102.763C310.937 102.487 311.124 102.195 311.288 101.888C311.607 101.364 311.807 100.793 311.944 100.2C311.955 100.161 311.955 100.12 311.957 100.08C312.14 99.2134 312.069 98.3614 311.791 97.524C311.604 96.9547 311.328 96.428 310.944 95.9627C310.843 95.84 310.725 95.748 310.564 95.7387C310.479 95.7334 310.468 95.688 310.501 95.6294C310.583 95.492 310.609 95.2947 310.843 95.336C310.875 95.34 310.908 95.3214 310.913 95.2894C310.932 95.1627 311.041 95.0667 311.044 94.9387C311.044 94.828 311.107 94.7747 311.189 94.7307C311.211 94.7214 311.228 94.712 311.247 94.704C311.739 94.516 311.84 94.5587 312.044 95.0614C312.293 95.6814 312.489 96.3187 312.651 96.9667C312.916 98.0387 313.02 99.1267 312.976 100.228C312.976 100.264 312.981 100.299 312.984 100.335Z" fill="#437F3B"/>
<path fill-rule="evenodd" clip-rule="evenodd" d="M310.681 103.361C310.783 103.436 310.823 103.559 310.911 103.647C311.28 104.011 311.739 104.152 312.233 104.212C312.377 104.229 312.473 104.173 312.525 104.031C312.567 103.916 312.604 103.801 312.599 103.679C312.591 103.367 312.616 103.052 312.575 102.74C312.567 102.677 312.555 102.609 312.591 102.547C312.888 103.08 313.156 103.631 313.544 104.105C313.713 104.309 313.889 104.503 314.143 104.604C314.203 104.628 314.249 104.651 314.211 104.719C314.171 104.788 314.151 104.893 314.028 104.857C313.973 104.84 313.919 104.808 313.861 104.793C313.656 104.737 313.656 104.739 313.661 104.956C313.549 104.939 313.44 104.92 313.328 104.901C313.309 104.881 313.288 104.883 313.265 104.891C313.236 104.885 313.203 104.88 313.171 104.876C313.031 104.848 312.889 104.82 312.752 104.792C312.437 104.741 312.124 104.688 311.809 104.636C311.593 104.603 311.383 104.571 311.2 104.436C311.168 104.412 311.127 104.401 311.109 104.359C310.971 104.024 310.796 103.707 310.681 103.361Z" fill="#4D4427"/>
<path fill-rule="evenodd" clip-rule="evenodd" d="M311.288 101.888C311.124 102.195 310.937 102.487 310.723 102.763C310.613 102.905 310.593 103.075 310.656 103.247C310.667 103.285 310.689 103.321 310.681 103.364C310.484 102.995 310.34 102.601 310.159 102.224C310.121 102.147 310.08 102.072 310.041 101.997C310.012 101.924 309.981 101.852 309.952 101.779C309.973 101.601 310.116 101.507 310.223 101.391C310.288 101.321 310.333 101.261 310.333 101.157C310.333 101.069 310.317 100.933 310.473 100.943C310.613 100.952 310.7 101.068 310.664 101.207C310.619 101.372 310.671 101.483 310.809 101.58C310.963 101.692 311.116 101.805 311.288 101.888Z" fill="#4B4F28"/>
<path fill-rule="evenodd" clip-rule="evenodd" d="M314.359 107.071C314.367 107.184 314.32 107.227 314.225 107.224C314.031 107.22 313.681 106.94 313.632 106.749C313.588 106.591 313.457 106.492 313.364 106.369C313.307 106.296 313.244 106.231 313.187 106.161C313.164 106.136 313.145 106.091 313.104 106.123C313.067 106.149 313.093 106.187 313.109 106.217C313.145 106.279 313.171 106.344 313.184 106.415C313.192 106.451 313.187 106.489 313.151 106.507C313.119 106.523 313.096 106.497 313.069 106.476C312.947 106.376 312.872 106.041 312.944 105.904C312.992 105.812 313.061 105.773 313.168 105.796C313.679 105.907 314.26 106.503 314.351 107.012C314.356 107.037 314.356 107.061 314.359 107.071Z" fill="#F14748"/>
<path fill-rule="evenodd" clip-rule="evenodd" d="M313.328 104.901C313.44 104.92 313.549 104.939 313.661 104.956C313.861 105.055 314.055 105.167 314.187 105.352C314.231 105.413 314.288 105.388 314.337 105.38C314.601 105.339 314.861 105.323 315.124 105.369C315.34 105.408 315.525 105.495 315.64 105.74C315.411 105.685 315.216 105.636 315.015 105.593C314.763 105.541 314.509 105.484 314.249 105.536C314.179 105.551 314.135 105.505 314.085 105.472C313.763 105.243 313.424 105.044 313.047 104.915C313.064 104.825 313.132 104.899 313.171 104.876C313.203 104.88 313.236 104.885 313.265 104.891C313.285 104.893 313.307 104.897 313.328 104.901Z" fill="#F14748"/>
<path fill-rule="evenodd" clip-rule="evenodd" d="M310.741 105.209C310.723 105.256 310.78 105.333 310.708 105.352C310.651 105.369 310.616 105.303 310.583 105.257C310.444 105.061 310.353 104.844 310.277 104.617C310.223 104.453 310.159 104.296 310.036 104.169C310.009 104.141 309.984 104.105 309.971 104.069C309.944 103.999 309.947 103.924 310.007 103.873C310.072 103.817 310.129 103.869 310.181 103.907C310.268 103.967 310.331 104.047 310.372 104.137C310.449 104.301 310.517 104.467 310.619 104.62C310.728 104.789 310.723 105.005 310.741 105.209Z" fill="#F14748"/>
<path fill-rule="evenodd" clip-rule="evenodd" d="M309.952 101.779C309.981 101.852 310.012 101.924 310.041 101.997C310.012 102.045 309.989 102.004 309.973 101.987C309.656 101.64 309.257 101.403 308.869 101.151C308.815 101.116 308.695 101.103 308.757 100.997C308.817 100.899 308.908 100.929 308.995 100.983C309.351 101.203 309.692 101.443 309.952 101.779Z" fill="#F14748"/>
<path fill-rule="evenodd" clip-rule="evenodd" d="M310.831 106.256C310.843 106.203 310.84 106.137 310.869 106.096C311.015 105.9 311.129 105.68 311.315 105.516C311.343 105.489 311.383 105.463 311.421 105.485C311.468 105.511 311.443 105.557 311.435 105.593C311.388 105.779 311.337 105.964 311.241 106.133C311.171 106.255 311.061 106.32 310.929 106.347C310.861 106.36 310.82 106.336 310.831 106.256Z" fill="#F14748"/>
<path fill-rule="evenodd" clip-rule="evenodd" d="M314.629 107.884C314.629 107.884 313.629 107.847 313.372 107.625C313.111 107.404 312.559 107.219 312.225 107.552C311.892 107.884 310.859 109.364 309.492 110.213C308.124 111.063 304.835 112.725 303.689 112.947C302.544 113.169 300.807 113.576 299.733 113.76C298.664 113.945 296.556 114.167 295.077 113.871C293.601 113.576 291.271 113.057 291.383 113.28C291.495 113.503 294.153 114.425 295.189 114.425C296.223 114.425 300.252 114.425 300.843 114.315C301.435 114.204 303.283 114.093 304.02 113.76C304.76 113.428 306.831 112.984 307.457 112.911C308.085 112.837 309.935 112.208 310.489 111.728C311.044 111.248 311.783 111.432 312.668 110.287C313.556 109.14 315.293 107.959 314.629 107.884Z" fill="#A61B20"/>
<path fill-rule="evenodd" clip-rule="evenodd" d="M312.58 100.381C312.367 101.461 312.132 101.887 311.932 102.288C311.731 102.689 311.484 102.951 311.544 103.321C311.607 103.692 312.085 103.967 312.208 103.984C312.525 104.031 312.44 102.888 312.487 102.533C312.531 102.18 312.903 100.697 312.903 100.375C312.903 100.051 312.799 99.3027 312.58 100.381Z" fill="#779F52"/>
<path fill-rule="evenodd" clip-rule="evenodd" d="M289.708 109.585L296.023 109.661C296.023 109.661 298.343 108.368 299.143 108.064C299.943 107.76 301.919 106.124 302.223 105.476C302.528 104.831 306.372 101.292 306.637 101.101C306.903 100.912 308.007 100.455 308.007 100.455C308.007 100.455 308.541 101.444 308.463 101.711C308.388 101.977 306.943 102.091 306.067 102.624C305.192 103.156 303.023 105.629 302.148 106.391C301.273 107.151 299.828 109.129 299.219 109.509C298.609 109.891 296.897 110.613 295.148 110.423C293.397 110.232 291.38 109.813 291.001 109.928C290.621 110.043 289.708 109.585 289.708 109.585Z" fill="#F14748"/>
<path d="M330.064 48.4227L327.389 45.748L330.064 43.072L332.736 45.7453L330.064 48.4227Z" fill="#ED1C24"/>
<path d="M323.359 48.4187L320.687 45.744L323.361 43.0694L326.033 45.744L323.359 48.4187Z" fill="#ED1C24"/>
<path d="M316.661 48.4214L313.987 45.748L316.661 43.0721L319.333 45.748L316.661 48.4214Z" fill="#ED1C24"/>
<path d="M320.009 51.772L317.335 49.0987L320.009 46.424L322.684 49.0947L320.009 51.772Z" fill="#ED1C24"/>
<path d="M320.012 45.0694L317.335 42.3947L320.012 39.7214L322.684 42.3921L320.012 45.0694Z" fill="#ED1C24"/>
<path d="M323.361 68.5253L320.687 65.852L323.359 63.1747L326.033 65.852L323.361 68.5253Z" fill="#83AC3C"/>
<path d="M316.661 68.5267L313.984 65.8507L316.659 63.1773L319.333 65.8533L316.661 68.5267Z" fill="#83AC3C"/>
<path d="M320.009 71.8774L317.333 69.2001L320.009 66.5254L322.684 69.2041L320.009 71.8774Z" fill="#83AC3C"/>
<path d="M320.009 65.1747L317.335 62.4974L320.009 59.824L322.684 62.4974L320.009 65.1747Z" fill="#83AC3C"/>
<path d="M333.413 51.7707L330.744 49.096L333.413 46.424L336.085 49.096L333.413 51.7707Z" fill="#ED1C24"/>
<path d="M336.765 55.1201L334.096 52.4467L336.765 49.7721L339.44 52.4454L336.765 55.1201Z" fill="#ED1C24"/>
<path d="M333.411 58.4694L330.739 55.8014L333.411 53.1227L336.085 55.7974L333.411 58.4694Z" fill="#ED1C24"/>
<path d="M330.061 61.824L327.388 59.1494L330.061 56.4734L332.733 59.1494L330.061 61.824Z" fill="#ED1C24"/>
<path d="M326.711 58.4694L324.041 55.796L326.711 53.1227L329.385 55.796L326.711 58.4694Z" fill="#ED1C24"/>
<path d="M309.957 48.4227L307.285 45.7467L309.957 43.0693L312.632 45.7467L309.957 48.4227Z" fill="#ED1C24"/>
<path d="M306.607 51.7734L303.932 49.096L306.607 46.4227L309.277 49.096L306.607 51.7734Z" fill="#ED1C24"/>
<path d="M303.257 55.1254L300.58 52.4454L303.252 49.7734L305.929 52.4494L303.257 55.1254Z" fill="#ED1C24"/>
<path d="M306.607 58.4707L303.932 55.7974L306.607 53.1227L309.277 55.7974L306.607 58.4707Z" fill="#ED1C24"/>
<path d="M309.957 61.824L307.28 59.1494L309.957 56.472L312.632 59.1494L309.957 61.824Z" fill="#ED1C24"/>
<path d="M313.309 58.4733L310.635 55.7973L313.309 53.1253L315.984 55.7973L313.309 58.4733Z" fill="#ED1C24"/>
<path d="M182.489 23.48C182.489 28.62 182.993 32.408 184.005 34.84C185.016 37.2773 186.693 38.4933 189.04 38.4933C189.961 38.4933 190.821 38.4013 191.623 38.2053C192.425 38.0146 193.092 37.7266 193.629 37.3426C193.953 37.1133 194.251 36.5853 194.52 35.7626C194.787 34.9373 195.009 33.9106 195.188 32.684C195.367 31.4586 195.509 30.0586 195.613 28.4853C195.715 26.9106 195.769 25.2626 195.769 23.536C195.769 18.512 195.249 14.756 194.208 12.26C193.168 9.76796 191.508 8.52264 189.22 8.52264C188.357 8.52264 187.512 8.62664 186.679 8.83864C185.845 9.04931 185.104 9.38263 184.449 9.84396C184.092 10.0733 183.799 10.604 183.559 11.4266C183.321 12.252 183.121 13.2773 182.957 14.5053C182.792 15.732 182.677 17.1226 182.599 18.6746C182.527 20.2306 182.489 21.8293 182.489 23.48ZM189.131 43.96C183.9 43.96 179.905 42.2253 177.144 38.7546C174.377 35.2826 173 30.2093 173 23.536C173 20.392 173.341 17.5466 174.024 14.9933C174.705 12.4426 175.723 10.2866 177.076 8.52264C178.429 6.75864 180.113 5.39597 182.135 4.43731C184.151 3.47864 186.485 2.99997 189.131 2.99997C191.773 2.99997 194.096 3.45197 196.103 4.35064C198.109 5.25197 199.784 6.5773 201.137 8.31997C202.487 10.0653 203.505 12.204 204.188 14.7346C204.871 17.2666 205.216 20.1613 205.216 23.4213C205.216 26.6053 204.871 29.4626 204.188 31.9933C203.505 34.524 202.487 36.6813 201.137 38.4653C199.784 40.2493 198.109 41.6106 196.103 42.5493C194.096 43.492 191.773 43.96 189.131 43.96Z" fill="#424C1F"/>
<path d="M23.372 48.6973L20.7 46.0227L23.3747 43.348L26.0467 46.0227L23.372 48.6973Z" fill="#ED1C24"/>
<path d="M16.6747 48.7L14 46.0267L16.6747 43.3507L19.3467 46.0267L16.6747 48.7Z" fill="#ED1C24"/>
<path d="M20.0227 52.0507L17.348 49.3773L20.0227 46.7026L22.6973 49.3733L20.0227 52.0507Z" fill="#ED1C24"/>
<path d="M20.0254 45.348L17.348 42.6733L20.0254 40L22.6973 42.6707L20.0254 45.348Z" fill="#ED1C24"/>
<path d="M23.7812 68.8054L21.1067 66.1334L23.7786 63.4547L26.4531 66.1334L23.7812 68.8054Z" fill="#83AC3C"/>
<path d="M17.0807 68.8066L14.4063 66.1306L17.0782 63.4573L19.7552 66.1333L17.0807 68.8066Z" fill="#83AC3C"/>
<path d="M20.4323 72.1573L17.7552 69.4814L20.4323 66.8067L23.1067 69.484L20.4323 72.1573Z" fill="#83AC3C"/>
<path d="M20.4323 65.4547L17.7578 62.7787L20.4323 60.104L23.1067 62.7787L20.4323 65.4547Z" fill="#83AC3C"/>
<path d="M33.8334 58.7493L31.1615 56.0813L33.8334 53.4027L36.5078 56.0773L33.8334 58.7493Z" fill="#ED1C24"/>
<path d="M37.573 55.0359L34.9011 52.3613L37.573 49.684L40.2448 52.3613L37.573 55.0359Z" fill="#ED1C24"/>
<path d="M34.224 51.6813L31.5522 49.0079L34.224 46.3346L36.8959 49.0079L34.224 51.6813Z" fill="#ED1C24"/>
<path d="M30.6719 48.3506L28 45.6746L30.6745 43L33.3464 45.6746L30.6719 48.3506Z" fill="#ED1C24"/>
<path d="M30.573 62.0359L27.9011 59.3613L30.573 56.684L33.2448 59.3613L30.573 62.0359Z" fill="#ED1C24"/>
<path d="M27.224 58.6813L24.5522 56.0079L27.224 53.3346L29.8959 56.0079L27.224 58.6813Z" fill="#ED1C24"/>
<path d="M23.6719 55.3506L21 52.6746L23.6745 50L26.3464 52.6746L23.6719 55.3506Z" fill="#ED1C24"/>
<path d="M10.3776 48.7027L7.70572 46.028L10.3776 43.3494L13.0521 46.028L10.3776 48.7027Z" fill="#ED1C24"/>
<path d="M7.02864 52.0533L4.3526 49.376L7.02864 46.7027L9.69791 49.376L7.02864 52.0533Z" fill="#ED1C24"/>
<path d="M3.67709 55.4053L1 52.7267L3.67344 50.052L6.35052 52.7293L3.67709 55.4053Z" fill="#ED1C24"/>
<path d="M7.02864 58.7507L4.3526 56.0773L7.02864 53.4027L9.69791 56.0773L7.02864 58.7507Z" fill="#ED1C24"/>
<path d="M10.3776 62.104L7.70312 59.4293L10.3776 56.752L13.0521 59.4293L10.3776 62.104Z" fill="#ED1C24"/>
<path d="M13.7318 58.7546L11.0547 56.0786L13.7318 53.4053L16.4036 56.0786L13.7318 58.7546Z" fill="#ED1C24"/>
<path d="M16.8828 55.42L14.2109 52.7467L16.8828 50.0707L19.5573 52.7467L16.8828 55.42Z" fill="#ED1C24"/>
</svg>
